# AST/ASF file generated using VICON BodyLanguage
# -----------------------------------------------
:version 1.10
:name VICON
:units
  mass 1.0
  length 0.45
  angle deg
:documentation
   .ast/.asf automatically generated from VICON data using
   VICON BodyBuilder and BodyLanguage model FoxedUp or BRILLIANT.MOD
:root
   order TX TY TZ RX RY RZ
   axis XYZ
   position 0 0 0  
   orientation 0 0 0 
:bonedata
  begin
     id 1 
     name lhipjoint
     direction 0.710188 -0.616876 0.339259 
     length 2.5669 
     axis 0 0 0  XYZ
  end
  begin
     id 2 
     name lfemur
     direction 0.34202 -0.939693 0  
     length 7.12796  
     axis 0 0 20  XYZ
    dof rx ry rz
    limits (-160.0 20.0)
           (-70.0 70.0)
           (-60.0 70.0)
  end
  begin
     id 3 
     name ltibia
     direction 0.34202 -0.939693 0   
     length 7.58108   
     axis 0 0 20   XYZ
    dof rx
    limits (-10.0 170.0)
  end
  begin
     id 4 
     name lfoot
     direction 0.0669471 -0.183936 0.980656   
     length 2.17365   
     axis -90 7.62852e-016 20   XYZ
    dof rx rz
    limits (-45.0 90.0)
           (-70.0 20.0)
  end
  begin
     id 5 
     name ltoes
     direction 1.53508e-011 -4.21705e-011 1   
     length 1.09427   
     axis -90 7.62852e-016 20   XYZ
    dof rx
    limits (-90.0 20.0)
  end
  begin
     id 6 
     name rhipjoint
     direction -0.700191 -0.625589 0.34405   
     length 2.53115  
     axis 0 0 0  XYZ 
  end
  begin
     id 7 
     name rfemur
     direction -0.34202 -0.939693 0   
     length 7.33006   
     axis 0 0 -20   XYZ
    dof rx ry rz
    limits (-160.0 20.0)
           (-70.0 70.0)
           (-70.0 60.0)
  end
  begin
     id 8 
     name rtibia
     direction -0.34202 -0.939693 0   
     length 7.64926   
     axis 0 0 -20   XYZ
    dof rx
    limits (-10.0 170.0)
 end
 begin
     id 9 
     name rfoot
     direction -0.0688927 -0.189281 0.979503   
     length 2.20493  
     axis -90 -7.62852e-016 -20   XYZ
    dof rx rz
    limits (-45.0 90.0)
           (-20.0 70.0)
  end
  begin
     id 10 
     name rtoes
     direction -1.53567e-011 -4.21933e-011 1   
     length 1.10919   
     axis -90 -7.62852e-016 -20   XYZ
    dof rx
    limits (-90.0 20.0)
  end
  begin
     id 11 
     name lowerback
     direction -0.0167868 0.989873 -0.140959   
     length 2.14596   
     axis 0 0 0   XYZ
    dof rx ry rz
    limits (-20.0 45.0)
           (-30.0 30.0)
           (-30.0 30.0)
  end
  begin
     id 12 
     name upperback
     direction 0.0129109 0.998033 0.0613525   
     length 2.10457   
     axis 0 0 0   XYZ
    dof rx ry rz
    limits (-20.0 45.0)
           (-30.0 30.0)
           (-30.0 30.0)
  end
  begin
     id 13 
     name thorax
     direction 0.0177047 0.991119 0.131797   
     length 2.17652   
     axis 0 0 0   XYZ
    dof rx ry rz
    limits (-20.0 45.0)
           (-30.0 30.0)
           (-30.0 30.0)
  end
  begin
     id 14 
     name lowerneck
     direction -0.0336893 0.997548 0.0613464   
     length 1.8912   
     axis 0 0 0   XYZ
    dof rx ry rz
    limits (-20.0 45.0)
           (-30.0 30.0)
           (-30.0 30.0)
  end
  begin
     id 15 
     name upperneck
     direction 0.0435909 0.997179 -0.0611028   
     length 1.8829   
     axis 0 0 0   XYZ
    dof rx ry rz
    limits (-20.0 45.0)
           (-30.0 30.0)
           (-30.0 30.0)
  end
  begin
     id 16
     name head
     direction 0.0175076 0.999444 -0.0283782  
     length 1.93197  
     axis 0 0 0   XYZ
    dof rx ry rz
    limits (-20.0 45.0)
           (-30.0 30.0)
           (-30.0 30.0)
  end
  begin
     id 17 
     name lclavicle
     direction 0.919164 0.389875 0.0559876  
     length 3.60004  
     axis 0 0 0   XYZ
    dof ry rz
    limits (-20.0 10.0)
           (0.0 20.0)
  end
  begin
     id 18 
     name lhumerus
     direction 1 -4.48958e-011 6.89191e-027   
     length 5.43301   
     axis 180 -30 -90   XYZ
    dof rx ry rz
    limits (-60.0 90.0)
           (-90.0 90.0)
           (-90.0 90.0)
  end
  begin
     id 19
     name lradius
     direction 1 -4.4897e-011 3.24727e-027   
     length 3.15936   
     axis 180 -30 -90   XYZ
    dof rx
    limits (-10.0 170.0)
  end
  begin
     id 20
     name lwrist
     direction 1 -4.4897e-011 9.00228e-027   
     length 1.57968   
     axis -6.29373e-015 90 90   XYZ
    dof ry
    limits (-180.0 0.0)
 end
  begin
     id 21 
     name lhand
     direction 1 -4.48968e-011 1.80042e-026   
     length 0.712827   
     axis -1.14882e-014 90 90   XYZ
    dof rx rz
    limits (-90.0 90.0)
           (-45.0 45.0)
  end
  begin
     id 22 
     name lfingers
     direction 1 -4.49019e-011 3.60267e-026   
     length 0.574699   
     axis -2.29769e-014 90 90   XYZ
    dof rx
    limits (0.0 90.0)
  end
  begin
     id 23
     name lthumb
     direction 0.707107 -6.3498e-011 0.707107   
     length 0.825157   
     axis -90 45 5.37419e-014   XYZ
    dof rx rz
    limits (-45.0 45.0)
           (-45.0 45.0)
  end
  begin
     id 24 
     name rclavicle
     direction -0.890334 0.455305 -0.00132111   
     length 3.51494  
     axis 0 0 0   XYZ 
    dof ry rz
    limits (-10.0 20.0)
           (-20.0 0.0)
  end
  begin
     id 25 
     name rhumerus
     direction -1 -4.48967e-011 5.07175e-028  
     length 5.34194   
     axis 180 30 90   XYZ
    dof rx ry rz
    limits (-90.0 60.0)
           (-90.0 90.0)
           (-90.0 90.0)
  end
  begin
     id 26 
     name rradius
     direction -1 -4.48955e-011 3.30467e-027   
     length 3.19351   
     axis 180 30 90   XYZ
    dof rx
    limits (-10.0 170.0)
  end
  begin
     id 27 
     name rwrist
     direction -1 -4.48968e-011 9.00208e-027   
     length 1.59676   
     axis -6.29373e-015 -90 -90   XYZ
    dof ry
    limits (-180.0 0.0)
  end
  begin
     id 28
     name rhand
     direction -1 -4.49e-011 1.80099e-026   
     length 0.743862   
     axis -1.14882e-014 -90 -90   XYZ
    dof rx rz
    limits (-90.0 90.0)
           (-45.0 45.0)
  end
  begin
     id 29
     name rfingers
     direction -1 -4.49009e-011 3.6023e-026   
     length 0.599721   
     axis -2.29769e-014 -90 -90   XYZ
    dof rx
    limits (0.0 90.0)
  end
  begin
     id 30
     name rthumb
     direction -0.707107 -6.35025e-011 0.707107   
     length 0.861083   
     axis -90 -45 -5.37419e-014   XYZ
    dof rx rz
    limits (-45.0 45.0)
           (-45.0 45.0)
  end
:hierarchy
  begin
    root lhipjoint rhipjoint lowerback
    lhipjoint lfemur
    lfemur ltibia
    ltibia lfoot
    lfoot ltoes
    rhipjoint rfemur
    rfemur rtibia
    rtibia rfoot
    rfoot rtoes
    lowerback upperback
    upperback thorax
    thorax lowerneck lclavicle rclavicle
    lowerneck upperneck
    upperneck head
    lclavicle lhumerus
    lhumerus lradius
    lradius lwrist
    lwrist lhand lthumb
    lhand lfingers
    rclavicle rhumerus
    rhumerus rradius
    rradius rwrist
    rwrist rhand rthumb
    rhand rfingers
  end

#!OML:ASF H:\Martial Arts Walks\Project 1\Capture day 1\Session 1\male.ASF
:FULLY-SPECIFIED
:DEGREES
860
root -3.53382 13.9177 12.6659 13.7776 20.4901 7.75634
lowerback 18.1705 -0.965042 -6.22202
upperback -2.74105 -2.6772 0.319012
thorax -13.0517 -0.752269 4.67157
lowerneck -2.47463 -8.67652 -9.44624
upperneck 1.51892 -11.4837 8.00375
head 2.06415 -5.70051 3.92646
rclavicle -1.14301e-014 -2.38542e-015
rhumerus -25.1727 17.9815 -68.6227
rradius 43.5565
rwrist 11.398
rhand -2.39962 -44.9225
rfingers 7.12502
rthumb 23.2901 -73.5338
lclavicle -1.14301e-014 -2.38542e-015
lhumerus -13.0281 -29.0898 85.5313
lradius 37.9674
lwrist -2.45829
lhand -15.0211 25.8789
lfingers 7.12502
lthumb 11.1444 55.563
rfemur -70.9471 -29.4911 17.1728
rtibia 83.4851
rfoot -17.9926 -24.7536
rtoes 14.2751
lfemur 20.8886 2.68162 -9.65772
ltibia 13.5431
lfoot -13.8905 31.9715
ltoes -25.4034
861
root -3.55038 13.9332 12.7853 13.9691 20.3652 7.51189
lowerback 18.0771 -0.98065 -5.91763
upperback -2.78853 -2.6143 0.395187
thorax -13.0665 -0.741228 4.56364
lowerneck -2.5267 -8.63313 -9.41737
upperneck 1.47247 -11.4192 7.97995
head 2.04792 -5.66728 3.91511
rclavicle 1.90833e-014 2.3059e-014
rhumerus -25.1539 17.982 -68.4639
rradius 43.6713
rwrist 11.3146
rhand -2.46131 -45.2169
rfingers 7.12502
rthumb 23.2309 -73.8357
lclavicle 1.90833e-014 2.3059e-014
lhumerus -12.5736 -29.0774 85.2145
lradius 37.7928
lwrist -2.53449
lhand -15.5286 25.7167
lfingers 7.12502
lthumb 10.6549 55.4266
rfemur -70.9306 -29.7217 17.8406
rtibia 83.6361
rfoot -18.2665 -25.4271
rtoes 14.3652
lfemur 21.0573 2.28252 -9.44002
ltibia 13.3812
lfoot -12.867 31.6823
ltoes -25.6214
862
root -3.57146 13.9507 12.9037 14.1683 20.1712 7.24098
lowerback 18.0428 -0.942805 -5.61265
upperback -2.85808 -2.48673 0.457853
thorax -13.1501 -0.697528 4.42542
lowerneck -2.42829 -8.61506 -9.47044
upperneck 1.30554 -11.3976 8.07463
head 1.98328 -5.65743 3.9666
rclavicle -4.96962e-015 -1.03368e-014
rhumerus -25.1451 17.9926 -68.3131
rradius 43.6564
rwrist 11.3308
rhand -2.62319 -45.2082
rfingers 7.12502
rthumb 23.0756 -73.8466
lclavicle -4.96962e-015 -1.03368e-014
lhumerus -12.1043 -29.071 84.928
lradius 37.53
lwrist -2.63374
lhand -16.1419 25.6722
lfingers 7.12502
lthumb 10.0632 55.4116
rfemur -70.9309 -29.8428 18.5535
rtibia 83.7223
rfoot -18.4639 -26.0547
rtoes 13.9989
lfemur 21.0089 1.94345 -9.20074
ltibia 13.6112
lfoot -11.8866 31.3887
ltoes -25.732
863
root -3.59366 13.969 13.031 14.3618 19.9094 6.97904
lowerback 17.9178 -0.910806 -5.38215
upperback -2.92605 -2.37845 0.519308
thorax -13.1723 -0.66021 4.32946
lowerneck -2.34626 -8.56925 -9.48626
upperneck 1.27063 -11.3399 8.04806
head 1.9502 -5.63068 3.96808
rclavicle 4.47266e-014 -2.62396e-014
rhumerus -25.3286 17.9825 -68.2448
rradius 43.9366
rwrist 11.2569
rhand -3.15388 -45.5084
rfingers 7.12502
rthumb 22.5663 -74.2096
lclavicle 4.47266e-014 -2.62396e-014
lhumerus -11.7846 -28.6103 84.6659
lradius 37.3648
lwrist -2.84349
lhand -17.3405 25.4032
lfingers 7.12502
lthumb 8.90679 55.1952
rfemur -70.8726 -29.9363 19.2286
rtibia 83.7677
rfoot -18.6995 -26.4409
rtoes 13.5242
lfemur 20.803 1.67845 -8.97566
ltibia 14.2506
lfoot -10.8541 31.1561
ltoes -25.8222
864
root -3.61618 13.9906 13.1662 14.4108 19.7221 6.67212
lowerback 17.8214 -0.882075 -5.06095
upperback -2.91451 -2.25682 0.550931
thorax -13.1237 -0.629457 4.14361
lowerneck -2.40697 -8.56054 -9.39564
upperneck 1.18785 -11.3225 8.04331
head 1.92504 -5.62003 3.94924
rclavicle -2.00773e-014 -7.95139e-015
rhumerus -25.2054 17.9072 -68.2152
rradius 43.7042
rwrist 11.2114
rhand -3.18006 -45.4953
rfingers 7.12502
rthumb 22.5411 -74.1995
lclavicle -2.00773e-014 -7.95139e-015
lhumerus -11.4397 -28.3397 84.3806
lradius 37.0989
lwrist -3.07768
lhand -17.5971 25.7299
lfingers 7.12502
lthumb 8.65911 55.5323
rfemur -70.5429 -30.065 19.8611
rtibia 83.7459
rfoot -18.9799 -26.6862
rtoes 12.8631
lfemur 20.453 1.31321 -8.68144
ltibia 15.3975
lfoot -9.98457 30.8559
ltoes -25.7727
865
root -3.6429 14.0166 13.2998 14.5052 19.3453 6.31591
lowerback 17.7046 -0.795008 -4.81443
upperback -2.9195 -2.0703 0.614472
thorax -13.0845 -0.560446 4.01787
lowerneck -2.4212 -8.51274 -9.46443
upperneck 1.10877 -11.2539 8.11263
head 1.90488 -5.58512 3.99095
rclavicle 1.61016e-014 1.19271e-014
rhumerus -25.1846 17.8136 -68.1714
rradius 43.6309
rwrist 11.3887
rhand -3.64018 -45.2515
rfingers 7.12502
rthumb 22.0995 -74.0086
lclavicle 1.61016e-014 1.19271e-014
lhumerus -11.1166 -27.924 84.1305
lradius 36.8266
lwrist -3.1023
lhand -18.4037 25.8402
lfingers 7.12502
lthumb 7.88071 55.6733
rfemur -70.2578 -29.9091 20.5226
rtibia 83.6293
rfoot -19.1579 -26.8444
rtoes 11.8972
lfemur 19.8016 1.06363 -8.43061
ltibia 17.0424
lfoot -8.95368 30.6441
ltoes -25.4403
866
root -3.67029 14.0455 13.4396 14.5193 18.9936 5.88811
lowerback 17.6409 -0.717087 -4.5237
upperback -2.93972 -1.88887 0.685866
thorax -13.0938 -0.49454 3.8798
lowerneck -2.47049 -8.47421 -9.36322
upperneck 1.12006 -11.1981 7.99834
head 1.89631 -5.55689 3.93311
rclavicle 7.7526e-015 -1.98785e-014
rhumerus -25.1806 17.7209 -68.1868
rradius 43.5292
rwrist 11.4519
rhand -3.6292 -45.2907
rfingers 7.12502
rthumb 22.11 -74.0465
lclavicle 7.7526e-015 -1.98785e-014
lhumerus -10.9023 -27.4928 83.9116
lradius 36.5079
lwrist -2.94463
lhand -20.0268 25.5785
lfingers 7.12502
lthumb 6.31398 55.4644
rfemur -69.7692 -29.7436 21.1721
rtibia 83.4359
rfoot -19.3982 -26.899
rtoes 10.4561
lfemur 18.8877 0.860224 -8.07301
ltibia 19.3118
lfoot -7.98605 30.3748
ltoes -25.0225
867
root -3.69764 14.0746 13.5815 14.5375 18.5933 5.51144
lowerback 17.5191 -0.63201 -4.31838
upperback -2.89631 -1.71367 0.750827
thorax -12.991 -0.430186 3.78132
lowerneck -2.51357 -8.39543 -9.35344
upperneck 1.03946 -11.0867 8.0243
head 1.86793 -5.5 3.94624
rclavicle -5.36719e-014 5.56597e-015
rhumerus -25.0828 17.6464 -68.2057
rradius 43.4101
rwrist 11.519
rhand -3.76612 -45.2829
rfingers 7.12502
rthumb 21.9785 -74.0543
lclavicle -5.36719e-014 5.56597e-015
lhumerus -10.6787 -26.7183 83.7088
lradius 36.2781
lwrist -2.89623
lhand -21.0952 25.6818
lfingers 7.12502
lthumb 5.28246 55.596
rfemur -69.2374 -29.5429 21.7313
rtibia 83.1866
rfoot -19.5137 -26.8246
rtoes 8.46165
lfemur 17.6787 0.695627 -7.79888
ltibia 22.1729
lfoot -6.91948 30.0962
ltoes -24.4239
868
root -3.7293 14.1091 13.721 14.4983 18.1545 4.89003
lowerback 17.4571 -0.527939 -3.96969
upperback -2.9084 -1.47802 0.878927
thorax -12.9939 -0.340785 3.6587
lowerneck -2.36965 -8.32358 -9.30314
upperneck 0.89829 -10.9979 8.02749
head 1.78313 -5.45799 3.95192
rclavicle -4.57205e-014 1.82882e-014
rhumerus -25.0264 17.5801 -68.2674
rradius 43.2395
rwrist 11.5764
rhand -3.85049 -45.3061
rfingers 7.12502
rthumb 21.8975 -74.087
lclavicle -4.57205e-014 1.82882e-014
lhumerus -10.5506 -26.1195 83.553
lradius 35.9494
lwrist -2.57317
lhand -22.0496 26.3491
lfingers 7.12502
lthumb 4.3609 56.2842
rfemur -68.6379 -29.1008 22.5202
rtibia 82.8165
rfoot -19.637 -26.6827
rtoes 6.51909
lfemur 16.0928 0.657525 -7.26317
ltibia 25.655
lfoot -5.45492 29.7398
ltoes -22.9999
869
root -3.76034 14.1414 13.8641 14.3879 17.7486 4.37598
lowerback 17.4117 -0.436375 -3.71733
upperback -2.86965 -1.28392 0.980171
thorax -12.9417 -0.267002 3.5718
lowerneck -2.30177 -8.25626 -9.25007
upperneck 0.856801 -10.9131 8.02596
head 1.74526 -5.41668 3.95
rclavicle 5.36719e-015 -1.03368e-014
rhumerus -24.9678 17.4964 -68.3475
rradius 43.035
rwrist 11.6619
rhand -3.95705 -45.199
rfingers 7.12502
rthumb 21.7952 -73.9918
lclavicle 5.36719e-015 -1.03368e-014
lhumerus -10.555 -25.1656 83.4779
lradius 35.7258
lwrist -2.46893
lhand -22.9479 26.8326
lfingers 7.12502
lthumb 3.49342 56.7837
rfemur -67.8761 -28.7634 23.1146
rtibia 82.4293
rfoot -19.701 -26.3904
rtoes 4.15338
lfemur 14.2711 0.673966 -6.7715
ltibia 29.7195
lfoot -3.70216 29.2632
ltoes -20.9715
870
root -3.79337 14.1769 14.004 14.2314 17.3203 3.77043
lowerback 17.4404 -0.328531 -3.44187
upperback -2.80669 -1.06146 1.11385
thorax -12.9066 -0.179688 3.50167
lowerneck -2.39383 -8.20993 -9.12383
upperneck 0.881597 -10.847 7.97609
head 1.75166 -5.38179 3.90826
rclavicle -2.32578e-014 3.18055e-015
rhumerus -24.8477 17.3612 -68.4046
rradius 42.8857
rwrist 11.6309
rhand -3.88746 -45.3554
rfingers 7.12502
rthumb 21.862 -74.1404
lclavicle -2.32578e-014 3.18055e-015
lhumerus -10.4718 -24.3428 83.3819
lradius 35.4196
lwrist -2.19726
lhand -23.8893 27.3691
lfingers 7.12502
lthumb 2.58424 57.3332
rfemur -67.0255 -28.3284 23.7596
rtibia 81.9787
rfoot -19.8686 -25.9913
rtoes 2.10175
lfemur 12.1334 0.616438 -6.24137
ltibia 34.3158
lfoot -1.1175 28.603
ltoes -18.2585
871
root -3.82522 14.2136 14.1452 13.9762 16.9509 3.02844
lowerback 17.4822 -0.247267 -3.03844
upperback -2.73144 -0.842609 1.27837
thorax -12.8647 -0.102229 3.3937
lowerneck -2.30333 -8.13269 -8.99913
upperneck 0.82985 -10.7527 7.98766
head 1.70176 -5.33573 3.89907
rclavicle 2.32578e-014 -6.36111e-015
rhumerus -24.7449 17.3102 -68.5138
rradius 42.6839
rwrist 11.5068
rhand -4.04709 -45.4746
rfingers 7.12502
rthumb 21.7087 -74.2774
lclavicle 2.32578e-014 -6.36111e-015
lhumerus -10.4521 -23.4979 83.3018
lradius 35.1098
lwrist -1.92527
lhand -24.7149 27.9917
lfingers 7.12502
lthumb 1.7869 57.964
rfemur -66.0164 -27.8886 24.4773
rtibia 81.5066
rfoot -20.1058 -25.611
rtoes 0.739915
lfemur 9.7761 0.394022 -5.60468
ltibia 39.3575
lfoot 2.49471 27.3139
ltoes -14.7117
872
root -3.85422 14.2434 14.2872 13.6562 16.6179 2.37891
lowerback 17.5927 -0.161017 -2.71645
upperback -2.60429 -0.63607 1.44641
thorax -12.8006 -0.0250273 3.33977
lowerneck -2.35007 -8.08974 -8.92775
upperneck 0.855259 -10.6953 8.00156
head 1.70953 -5.3057 3.89125
rclavicle 3.91606e-014 3.77691e-014
rhumerus -24.5992 17.2873 -68.5159
rradius 42.5023
rwrist 11.5893
rhand -3.99876 -45.5466
rfingers 7.12502
rthumb 21.7552 -74.344
lclavicle 3.91606e-014 3.77691e-014
lhumerus -10.4288 -22.491 83.3071
lradius 34.8271
lwrist -1.84265
lhand -26.0351 28.0073
lfingers 7.12502
lthumb 0.511832 57.9865
rfemur -64.9382 -27.5686 25.0505
rtibia 81.0858
rfoot -20.2167 -25.4674
rtoes -0.578221
lfemur 7.29145 0.0218687 -5.09389
ltibia 44.7486
lfoot 6.63545 24.1095
ltoes -9.00238
873
root -3.87999 14.2611 14.421 13.348 16.3331 1.66862
lowerback 17.6852 -0.0908449 -2.30346
upperback -2.52059 -0.429685 1.62039
thorax -12.7754 0.0474426 3.24044
lowerneck -2.29023 -8.044 -8.79114
upperneck 0.903361 -10.644 7.97471
head 1.6989 -5.2809 3.861
rclavicle 4.96962e-014 -1.07344e-014
rhumerus -24.5908 17.2358 -68.5438
rradius 42.3942
rwrist 11.5
rhand -3.90975 -45.5306
rfingers 7.12502
rthumb 21.8406 -74.3181
lclavicle 4.96962e-014 -1.07344e-014
lhumerus -10.4626 -21.5394 83.3711
lradius 34.5383
lwrist -1.73889
lhand -26.6659 28.6645
lfingers 7.12502
lthumb -0.0973592 58.6442
rfemur -63.9517 -27.2667 25.6775
rtibia 80.7353
rfoot -20.5718 -25.4983
rtoes -1.62319
lfemur 4.50975 -0.439559 -4.57651
ltibia 50.4463
lfoot 10.1395 17.2697
ltoes -5.22944
874
root -3.90411 14.275 14.5548 12.9975 16.132 0.831629
lowerback 17.7925 -0.0388221 -1.77052
upperback -2.41803 -0.213779 1.84741
thorax -12.7365 0.117986 3.12849
lowerneck -2.43306 -8.04031 -8.57739
upperneck 1.07888 -10.6386 7.84606
head 1.75887 -5.27555 3.76788
rclavicle 2.00773e-014 -2.8625e-014
rhumerus -24.5258 17.2566 -68.5024
rradius 42.3384
rwrist 11.3841
rhand -3.66034 -45.6413
rfingers 7.12502
rthumb 22.0801 -74.4007
lclavicle 2.00773e-014 -2.8625e-014
lhumerus -10.4309 -20.6905 83.4668
lradius 34.1896
lwrist -1.63594
lhand -27.1573 28.9899
lfingers 7.12502
lthumb -0.571966 58.9689
rfemur -62.9182 -26.9955 26.4172
rtibia 80.4057
rfoot -20.8231 -25.6328
rtoes -2.7755
lfemur 1.45771 -0.861879 -4.00594
ltibia 56.3469
lfoot 10.3187 7.51106
ltoes -4.34608
